<svg xmlns="http://www.w3.org/2000/svg" width="49.092" height="41.08" viewBox="0 0 49.092 41.08">
  <g id="icon-secure-payment" transform="translate(-63.178 -3.96)">
    <path id="Path_39" data-name="Path 39" d="M108.492,3.96H68.55a3.783,3.783,0,0,0-3.779,3.778V23.876l-1.269.7a.625.625,0,0,0-.324.549v6.621a13.859,13.859,0,0,0,8.308,12.686l1.283.558a.625.625,0,0,0,.5,0l1.447-.624A13.851,13.851,0,0,0,82.9,34.42h25.591a3.782,3.782,0,0,0,3.778-3.779V7.738A3.781,3.781,0,0,0,108.492,3.96ZM81.939,31.612a12.588,12.588,0,0,1-7.715,11.6l0,0-1.2.518-1.035-.451a12.609,12.609,0,0,1-7.56-11.541v-6.25l8.629-4.729L81.939,25.5Zm29.082-.971a2.529,2.529,0,0,1-2.529,2.527H83.1a13.708,13.708,0,0,0,.088-1.556V25.122a.627.627,0,0,0-.332-.554L73.346,19.5a.626.626,0,0,0-.594,0l-6.728,3.688V7.738A2.53,2.53,0,0,1,68.55,5.21h39.942a2.532,2.532,0,0,1,2.529,2.527Z" transform="translate(0 0)"/>
    <path id="Path_40" data-name="Path 40" d="M90.768,15.206a4.652,4.652,0,0,0-2.029.462,4.682,4.682,0,1,0,0,8.438,4.682,4.682,0,1,0,2.029-8.9Zm-4.057,8.114a3.432,3.432,0,1,1,.78-6.773,4.671,4.671,0,0,0-.074,6.607l.074.074a3.472,3.472,0,0,1-.78.092Zm3.432-3.432a3.425,3.425,0,0,1-1.4,2.765A3.426,3.426,0,0,1,88,17.863a3.465,3.465,0,0,1,.742-.742,3.425,3.425,0,0,1,1.4,2.766Zm.625,3.432a3.385,3.385,0,0,1-.78-.092,4.669,4.669,0,0,0,.074-6.606l-.074-.076a3.432,3.432,0,1,1,1.561,6.683,3.47,3.47,0,0,1-.78.09Z" transform="translate(10.393 6.2)"/>
    <path id="Path_41" data-name="Path 41" d="M67.484,8.9H84.17a.625.625,0,1,0,0-1.25H67.484a.625.625,0,1,0,0,1.25Z" transform="translate(2.028 2.032)"/>
    <path id="Path_42" data-name="Path 42" d="M81.508,7.646H79.7a.625.625,0,0,0,0,1.25h1.807a.625.625,0,0,0,0-1.25Z" transform="translate(8.765 2.032)"/>
    <path id="Path_43" data-name="Path 43" d="M68.263,9.679h-.779a.625.625,0,1,0,0,1.25h.779a.625.625,0,1,0,0-1.25Z" transform="translate(2.028 3.153)"/>
    <path id="Path_44" data-name="Path 44" d="M79.909,9.679H69.49a.625.625,0,0,0,0,1.25H79.909a.625.625,0,1,0,0-1.25Z" transform="translate(3.136 3.153)"/>
    <path id="Path_45" data-name="Path 45" d="M82.628,9.679H77.667a.625.625,0,0,0,0,1.25h4.961a.625.625,0,0,0,0-1.25Z" transform="translate(7.644 3.153)"/>
    <path id="Path_46" data-name="Path 46" d="M67.758,22.327a.626.626,0,1,0-.951.814l2.5,2.929a.626.626,0,0,0,.87.078l5.827-4.739a.625.625,0,0,0-.79-.97h0l-5.352,4.353Z" transform="translate(1.918 9.008)"/>
  </g>
</svg>
