<svg xmlns="http://www.w3.org/2000/svg" width="16.066" height="15.353" viewBox="0 0 16.066 15.353">
  <path id="icon-linkedin" d="M-.18,2A1.67,1.67,0,0,1,.363.72a1.991,1.991,0,0,1,1.411-.5,1.932,1.932,0,0,1,1.38.5A1.749,1.749,0,0,1,3.7,2.046,1.633,1.633,0,0,1,3.17,3.287,2,2,0,0,1,1.743,3.8H1.727a1.9,1.9,0,0,1-1.38-.512A1.719,1.719,0,0,1-.18,2Zm.2,13.569V5.209H3.464V15.569H.022Zm5.35,0H8.814V9.784a2.232,2.232,0,0,1,.124-.837A2.249,2.249,0,0,1,9.6,8.055a1.685,1.685,0,0,1,1.109-.364q1.737,0,1.737,2.342v5.536h3.443V9.629A4.991,4.991,0,0,0,14.8,6.148a3.7,3.7,0,0,0-2.869-1.186A3.519,3.519,0,0,0,8.814,6.683v.031H8.8l.016-.031V5.209H5.372q.031.5.031,3.086t-.031,7.273Z" transform="translate(0.18 -0.216)" fill="#2c302c"/>
</svg>
