<?xml version="1.0" encoding="utf-8"?>
<!-- Generator: Adobe Illustrator 16.0.0, SVG Export Plug-In . SVG Version: 6.00 Build 0)  -->
<!DOCTYPE svg PUBLIC "-//W3C//DTD SVG 1.1//EN" "http://www.w3.org/Graphics/SVG/1.1/DTD/svg11.dtd">
<svg version="1.1" id="Layer_1" xmlns="http://www.w3.org/2000/svg" xmlns:xlink="http://www.w3.org/1999/xlink" x="0px" y="0px"
	 width="80px" height="80px" viewBox="0 0 80 80" enable-background="new 0 0 80 80" xml:space="preserve">
<g transform="translate(0,-284.29999)">
	<path d="M39.369,285.382c-21.401,0-38.787,17.398-38.787,38.799c0,21.401,17.386,38.787,38.787,38.787
		c21.401,0,38.799-17.386,38.799-38.787C78.168,302.78,60.771,285.382,39.369,285.382z M39.369,289.261
		c19.304,0,34.921,15.616,34.921,34.92c0,19.304-15.617,34.909-34.921,34.909c-19.304,0-34.908-15.605-34.908-34.909
		C4.461,304.877,20.065,289.261,39.369,289.261z M31.619,306.721c-2.505,0-4.648,1.636-5.463,3.88H23.86
		c-1.072,0-1.941,0.868-1.941,1.941c0,1.072,0.869,1.941,1.941,1.941h2.292c0.811,2.246,2.957,3.879,5.467,3.879
		c2.511,0,4.649-1.633,5.455-3.879h17.811c1.073,0,1.944-0.869,1.944-1.941c0-1.073-0.871-1.941-1.944-1.941H37.065
		C36.255,308.358,34.123,306.721,31.619,306.721z M31.619,310.601c1.095,0,1.932,0.855,1.932,1.95s-0.837,1.932-1.932,1.932
		c-1.094,0-1.947-0.837-1.947-1.932S30.524,310.601,31.619,310.601z M47.127,318.359c-2.505,0-4.636,1.636-5.448,3.878H23.86
		c-1.072,0-1.941,0.871-1.941,1.943c0,1.072,0.869,1.942,1.941,1.942h17.814c0.804,2.245,2.941,3.877,5.452,3.877
		c2.51,0,4.657-1.632,5.468-3.877h2.29c1.073,0,1.944-0.871,1.944-1.942c0-1.073-0.871-1.943-1.944-1.943h-2.296
		C51.777,319.994,49.631,318.359,47.127,318.359L47.127,318.359z M47.127,322.237c1.095,0,1.947,0.857,1.947,1.952
		c0,1.095-0.853,1.934-1.947,1.934c-1.093,0-1.931-0.839-1.931-1.934C45.196,323.093,46.034,322.237,47.127,322.237z
		 M31.619,329.996c-2.505,0-4.648,1.636-5.463,3.878H23.86c-1.072,0-1.941,0.87-1.941,1.941c0,1.074,0.869,1.942,1.941,1.942h2.292
		c0.811,2.246,2.957,3.879,5.467,3.879c2.511,0,4.649-1.633,5.455-3.879h17.811c1.073,0,1.944-0.868,1.944-1.942
		c0-1.071-0.871-1.941-1.944-1.941H37.065C36.255,331.632,34.123,329.996,31.619,329.996z M31.619,333.874
		c1.095,0,1.932,0.857,1.932,1.953c0,1.093-0.837,1.931-1.932,1.931c-1.094,0-1.947-0.838-1.947-1.931
		C29.672,334.732,30.524,333.874,31.619,333.874z"/>
</g>
</svg>
