<svg xmlns="http://www.w3.org/2000/svg" width="41.165" height="41.163" viewBox="0 0 41.165 41.163">
  <g id="icon-return" transform="translate(-65.418 -3.706)">
    <path id="Path_35" data-name="Path 35" d="M86,44.869A20.582,20.582,0,1,1,86,3.706a20.357,20.357,0,0,1,9.373,2.253,20.783,20.783,0,0,1,7.122,6.019l-1.223.915a19.058,19.058,0,1,0,3.782,11.393h1.528A20.566,20.566,0,0,1,86,44.869Z" fill="#231e1a"/>
    <path id="Path_36" data-name="Path 36" d="M92.947,12.991H84.24V11.464h7.179V4.031h1.527Z" transform="translate(9.701 0.168)" fill="#231e1a"/>
    <path id="Path_37" data-name="Path 37" d="M81.745,27.733H76.294V26.205h5.451a2.769,2.769,0,1,0,0-5.539H79.832a4.3,4.3,0,1,1,0-8.592h5.452V13.6H79.832a2.769,2.769,0,1,0,0,5.537h1.912a4.3,4.3,0,1,1,0,8.594Z" transform="translate(5.212 4.313)" fill="#231e1a"/>
    <rect id="Rectangle_6" data-name="Rectangle 6" width="1.527" height="3.533" transform="translate(85.237 13.622)" fill="#231e1a"/>
    <rect id="Rectangle_7" data-name="Rectangle 7" width="1.527" height="3.533" transform="translate(85.237 31.282)" fill="#231e1a"/>
  </g>
</svg>
