<?xml version="1.0" encoding="utf-8"?>
<!-- Generator: Adobe Illustrator 16.0.0, SVG Export Plug-In . SVG Version: 6.00 Build 0)  -->
<!DOCTYPE svg PUBLIC "-//W3C//DTD SVG 1.1//EN" "http://www.w3.org/Graphics/SVG/1.1/DTD/svg11.dtd">
<svg version="1.1" id="Layer_1" xmlns="http://www.w3.org/2000/svg" xmlns:xlink="http://www.w3.org/1999/xlink" x="0px" y="0px"
	 width="80px" height="80px" viewBox="0 0 80 80" enable-background="new 0 0 80 80" xml:space="preserve">
<g>
	<g>
		<path fill="#010101" d="M68.485,12.497H58.023V9.644c0-0.713-0.475-1.189-1.188-1.189h-4.636V7.504
			c0-3.329-2.972-6.063-6.657-6.063h-9.509c-3.686,0-6.657,2.734-6.657,6.063v0.832h-4.518c-0.714,0-1.189,0.475-1.189,1.189v2.853
			H13.327c-2.497,0-4.636,1.902-4.636,4.279v58.842c0,2.378,2.021,4.281,4.636,4.281h55.158c2.496,0,4.636-1.903,4.636-4.281V16.776
			C73.121,14.399,71.101,12.497,68.485,12.497z M31.872,7.504c0-2.021,1.902-3.685,4.279-3.685h9.51
			c2.377,0,4.279,1.664,4.279,3.685v0.832H31.872V7.504z M55.766,10.832v6.419h-29.6c0-2.377,0-3.923,0-6.419
			C38.41,10.832,45.305,10.832,55.766,10.832z M70.743,75.618c0,1.07-1.069,1.901-2.258,1.901H13.327
			c-1.189,0-2.258-0.831-2.258-1.901V16.776c0-1.07,1.069-1.902,2.258-1.902h10.461v3.447c0,0.713,0.476,1.189,1.189,1.189h31.976
			c0.714,0,1.189-0.476,1.189-1.189v-3.447h10.463c1.188,0,2.257,0.832,2.257,1.902v58.842H70.743z"/>
	</g>
	<g>
		<path fill="#010101" d="M16.299,42.928h14.146c0.714,0,1.189-0.474,1.189-1.188v-4.755c0-0.713-0.475-1.189-1.189-1.189
			c-0.713,0-1.188,0.476-1.188,1.189v3.566H17.488V28.663h12.957c0.714,0,1.189-0.475,1.189-1.189c0-0.712-0.475-1.188-1.189-1.188
			H16.299c-0.713,0-1.189,0.476-1.189,1.188V41.74C15.11,42.335,15.586,42.928,16.299,42.928z"/>
	</g>
	<g>
		<path fill="#010101" d="M30.445,30.685l-7.251,5.23l-1.664-3.328c-0.238-0.595-0.951-0.832-1.546-0.476
			c-0.594,0.238-0.832,0.951-0.475,1.545l2.258,4.636c0.119,0.356,0.476,0.594,0.833,0.594c0.356,0.119,0.713,0,0.951-0.238
			l8.44-6.063c0.476-0.356,0.595-1.07,0.238-1.665C31.634,30.328,30.921,30.209,30.445,30.685z"/>
	</g>
	<g>
		<path fill="#010101" d="M48.276,44.236c0.714,0,1.188-0.476,1.188-1.188s-0.475-1.189-1.188-1.189h-4.518
			c-0.475,0-0.95,0.356-1.188,0.832l-5.706,18.782h-19.02l-1.902-9.51H31.04c0.714,0,1.189-0.476,1.189-1.189
			c0-0.713-0.475-1.188-1.189-1.188H14.635c-0.356,0-0.713,0.118-0.951,0.476c-0.238,0.238-0.238,0.596-0.238,0.952l2.258,11.886
			c0.119,0.477,0.595,0.952,1.188,0.952h20.803c1.189,0,2.259,1.069,2.259,2.258c0,1.071-0.714,1.901-1.665,2.142
			c-0.595-1.666-2.021-2.854-3.804-2.854c-1.783,0-3.329,1.188-3.923,2.854h-6.301c-0.476-1.666-2.021-2.854-3.923-2.854
			c-1.902,0-3.328,1.188-3.923,2.854h-0.476c-0.713,0-1.188,0.475-1.188,1.188c0,0.714,0.476,1.189,1.188,1.189h0.476
			c0.475,1.664,2.021,2.853,3.923,2.853c1.784,0,3.329-1.188,3.923-2.853h6.301c0.475,1.664,2.021,2.853,3.923,2.853
			c1.902,0,3.447-1.308,3.923-2.973c2.378-0.355,4.041-2.257,4.041-4.636c0-2.021-1.308-3.686-3.09-4.398l5.232-17.236H48.276z
			 M20.341,71.339c-0.951,0-1.664-0.712-1.664-1.664c0-0.95,0.713-1.665,1.664-1.665s1.664,0.715,1.664,1.665
			C22.005,70.507,21.292,71.339,20.341,71.339z M34.368,71.339c-0.951,0-1.664-0.712-1.664-1.664c0-0.95,0.713-1.665,1.664-1.665
			c0.951,0,1.665,0.715,1.665,1.665C36.033,70.507,35.319,71.339,34.368,71.339z"/>
	</g>
	<g>
		<path fill="#010101" d="M65.751,26.167H37.935c-0.713,0-1.189,0.476-1.189,1.189c0,0.713,0.476,1.188,1.189,1.188h27.816
			c0.713,0,1.188-0.476,1.188-1.188C66.939,26.762,66.464,26.167,65.751,26.167z"/>
	</g>
	<g>
		<path fill="#010101" d="M65.751,36.509H37.935c-0.713,0-1.189,0.476-1.189,1.188c0,0.714,0.476,1.189,1.189,1.189h27.816
			c0.713,0,1.188-0.475,1.188-1.189C66.939,36.985,66.464,36.509,65.751,36.509z"/>
	</g>
	<g>
		<path fill="#010101" d="M65.751,46.732H46.97c-0.715,0-1.189,0.475-1.189,1.189c0,0.713,0.475,1.188,1.189,1.188h18.781
			c0.713,0,1.188-0.475,1.188-1.188C66.939,47.326,66.464,46.732,65.751,46.732z"/>
	</g>
	<g>
		<path fill="#010101" d="M65.751,57.074H46.97c-0.715,0-1.189,0.477-1.189,1.189c0,0.714,0.475,1.188,1.189,1.188h18.781
			c0.713,0,1.188-0.475,1.188-1.188C66.939,57.669,66.464,57.074,65.751,57.074z"/>
	</g>
	<g>
		<path fill="#010101" d="M65.751,67.416H46.97c-0.715,0-1.189,0.477-1.189,1.188c0,0.713,0.475,1.189,1.189,1.189h18.781
			c0.713,0,1.188-0.477,1.188-1.189C66.939,67.893,66.464,67.416,65.751,67.416z"/>
	</g>
</g>
</svg>
