<?xml version="1.0" encoding="utf-8"?>
<!-- Generator: Adobe Illustrator 16.0.0, SVG Export Plug-In . SVG Version: 6.00 Build 0)  -->
<!DOCTYPE svg PUBLIC "-//W3C//DTD SVG 1.1//EN" "http://www.w3.org/Graphics/SVG/1.1/DTD/svg11.dtd">
<svg version="1.1" id="Layer_1" xmlns="http://www.w3.org/2000/svg" xmlns:xlink="http://www.w3.org/1999/xlink" x="0px" y="0px"
	 width="80px" height="80px" viewBox="0 0 80 80" enable-background="new 0 0 80 80" xml:space="preserve">
<path d="M75.287,40.43c-0.865,0-1.653,0.709-1.653,1.653c0,18.34-14.954,33.294-33.293,33.294C22,75.377,7.046,60.423,7.046,42.083
	c0-17.553,13.695-32.036,31.012-33.216L36.64,9.969c-0.708,0.551-0.866,1.574-0.314,2.282c0.314,0.394,0.787,0.63,1.259,0.63
	c0.315,0,0.708-0.079,0.944-0.314l5.354-4.093c0.393-0.315,0.629-0.788,0.629-1.338c0-0.551-0.314-1.023-0.708-1.26l-5.353-3.542
	c-0.709-0.472-1.732-0.314-2.204,0.473c-0.473,0.708-0.315,1.731,0.472,2.204l1.102,0.708C18.852,6.978,3.818,22.798,3.818,42.083
	c0,20.149,16.372,36.521,36.522,36.521s36.599-16.371,36.599-36.521C76.939,41.139,76.152,40.43,75.287,40.43z"/>
<circle cx="74.107" cy="33.582" r="1.968"/>
<circle cx="71.509" cy="26.262" r="1.968"/>
<circle cx="66.786" cy="19.414" r="1.968"/>
<circle cx="60.254" cy="13.511" r="1.968"/>
<circle cx="52.462" cy="9.339" r="1.968"/>
<path d="M40.34,57.982L40.34,57.982c0.944-0.788,11.49-10.704,13.538-14.404c0,0,5.353-6.533,0-11.413c0,0-7.713-6.533-13.459,2.362
	c-5.747-8.895-13.46-2.362-13.46-2.362c-5.352,4.88,0,11.413,0,11.413C28.927,47.199,39.081,56.801,40.34,57.982z"/>
</svg>
