<?xml version="1.0" encoding="utf-8"?>
<!-- Generator: Adobe Illustrator 16.0.0, SVG Export Plug-In . SVG Version: 6.00 Build 0)  -->
<!DOCTYPE svg PUBLIC "-//W3C//DTD SVG 1.1//EN" "http://www.w3.org/Graphics/SVG/1.1/DTD/svg11.dtd">
<svg version="1.1" id="Layer_1" xmlns="http://www.w3.org/2000/svg" xmlns:xlink="http://www.w3.org/1999/xlink" x="0px" y="0px"
	 width="80px" height="80px" viewBox="0 0 80 80" enable-background="new 0 0 80 80" xml:space="preserve">
<g>
	<g>
		<path d="M40.7,1.032c-15.71,0-28.49,12.785-28.49,28.498c0,9.929,10.988,24.892,19.007,34.495
			c-7.334,1.294-11.625,3.975-11.625,7.387c0,5.373,10.622,8.187,21.115,8.187c10.491,0,21.116-2.813,21.116-8.187
			c0-3.405-4.299-6.093-11.634-7.388c8.021-9.602,19.013-24.565,19.013-34.494C69.201,13.817,56.415,1.032,40.7,1.032z M40.7,4.608
			c13.744,0,24.926,11.181,24.926,24.922c0,12.063-19.65,34.152-24.926,39.863c-5.272-5.711-24.915-27.799-24.915-39.863
			C15.785,15.789,26.962,4.608,40.7,4.608z M58.245,71.411c0,1.38-5.968,4.61-17.539,4.61s-17.539-3.23-17.539-4.61
			c0-0.97,3.271-3.222,10.78-4.183c2.988,3.434,5.162,5.705,5.465,6.021c0.337,0.348,0.803,0.548,1.288,0.548
			c0.485,0,0.952-0.198,1.286-0.548c0.305-0.314,2.48-2.588,5.473-6.024C54.973,68.188,58.245,70.445,58.245,71.411z"/>
		<path d="M46.713,48.311c-1.918-0.574-3.694-1.278-4.23-1.713c-1.179-0.961-1.771-2.378-1.546-3.701
			c0.143-0.897,0.626-1.581,0.98-2.079l0.171-0.244c0.38-0.556,0.658-1.18,0.819-1.831c-0.563,0.133-1.343,0.427-1.876,0.627
			c-2.021,0.761-4.794,1.808-6.781-0.036c-0.515-0.476-0.705-1.213-0.479-1.881c0.355-1.058,1.118-1.741,1.731-2.29
			c0.209-0.188,0.518-0.462,0.622-0.614c-3.792-0.31-5.167-1.844-5.653-3.086c-0.472-1.208-0.222-2.582,0.639-3.5
			c0.729-0.777,1.769-1.075,2.722-0.771c1.573,0.507,1.975,0.391,2.055,0.344c0.024-0.094-0.039-0.674-0.594-1.513l-0.089-0.138
			c-0.828-1.259-1.959-2.984-1.342-5.003c0.37-1.222,1.268-2.018,2.006-2.575c1.225-0.929,2.597-1.669,4.073-2.195
			c0.624-0.221,2.004-0.711,2.154-1.055c-0.075-0.36-0.935-1.857-1.503-2.849c-0.6-1.046-1.198-2.107-1.64-3.101
			c-8.613,0.749-15.684,6.969-17.733,15.156c1.76-0.469,3.471-0.671,4.578-0.8l0.549-0.066c0.607-0.08,1.334-0.126,2.092,0.133
			c1.151,0.399,1.936,1.381,2.007,2.501c0.087,1.195-0.626,2.014-1.053,2.502c-0.715,0.828-1.113,2.041-0.641,2.712l0.136,0.177
			c0.314,0.402,0.841,1.075,0.859,2.046c0.005,0.648-0.208,1.262-0.656,1.891c-0.583,0.829-2.428,5.851-2.438,7.975
			c0,0.043-0.021,0.078-0.025,0.117c3.612,3.553,8.548,5.763,13.999,5.783c0.002,0,0.076,0,0.079,0
			C42.796,49.232,44.814,48.907,46.713,48.311z"/>
		<path d="M45.657,15.337c-0.212,2.618-2.846,3.551-4.421,4.108c-1.225,0.438-2.274,1.004-3.213,1.716
			c-0.546,0.411-0.704,0.643-0.742,0.763c-0.128,0.417,0.472,1.331,0.909,1.996l0.09,0.14c1.435,2.179,1.557,4.347,0.322,5.798
			c-0.542,0.636-1.193,0.989-1.867,1.159c1.781,0.237,2.921,1.971,2.964,3.513c0.021,0.649-0.144,1.202-0.399,1.67
			c0.171-0.062,0.329-0.122,0.471-0.176c1.993-0.752,5.006-1.881,6.597,0.65c0.188,0.297,0.286,0.647,0.274,1
			c-0.05,1.737-0.617,3.483-1.603,4.916l-0.207,0.299c-0.138,0.19-0.346,0.483-0.371,0.594c0.008,0.029,0.097,0.196,0.272,0.336
			c0.569,0.333,4.907,1.83,6.684,1.838c0.193,0,0.37,0.055,0.543,0.113c5.313-3.61,8.826-9.688,8.854-16.568
			c0.004-0.971-0.085-1.926-0.216-2.872c-0.544,0.796-1.117,1.643-1.24,1.872c-0.603,1.292-1.756,2.105-2.999,2.105
			c-0.013,0-0.026,0-0.038,0c-1.103-0.012-1.876-0.63-2.386-1.037c-0.059-0.047-0.132-0.105-0.2-0.158
			c-0.028,0.02-0.057,0.039-0.087,0.058c-0.127,0.082-0.256,0.163-0.387,0.235c-1.288,0.751-2.785,0.576-3.627-0.426
			c-0.397-0.475-0.522-1.125-0.326-1.714c0.223-0.662,0.333-1.377,0.324-2.093c-0.635-0.034-1.247-0.114-1.854-0.239
			c-0.383-0.089-1.01-0.233-1.554-0.738c-0.882-0.826-1.323-2.387,0.062-4.314c0.706-0.982,1.971-2.681,3.234-4.379
			c0.83-1.118,1.647-2.217,2.314-3.128c-2.636-1.757-5.653-2.854-8.862-3.217c0.234,0.424,0.477,0.852,0.716,1.267
			C45.014,12.731,45.758,14.095,45.657,15.337z"/>
		<path d="M50.162,21.615c0.396,0.009,0.968,0.021,1.556,0.343c0.601,0.319,1.352,1.04,1.468,2.615
			c0.021,0.308,0.029,0.616,0.02,0.924c0.141-0.026,0.29-0.047,0.446-0.052c1.125-0.079,1.979,0.604,2.515,1.03
			c0.016,0.01,0.028,0.023,0.045,0.035c0.228-0.424,0.753-1.203,2.044-3.078c0.389-0.566,0.883-1.286,1.155-1.696
			c-0.989-2.501-2.476-4.807-4.428-6.776c-0.115-0.115-0.244-0.217-0.36-0.328c-0.657,0.89-1.434,1.938-2.228,3.007
			c-1.095,1.47-2.19,2.944-2.917,3.941C49.704,21.6,49.935,21.612,50.162,21.615z"/>
		<path d="M20.644,28.201c-0.013,0.281-0.045,0.559-0.046,0.842c-0.016,3.931,1.122,7.595,3.067,10.704
			c0.647-2.461,1.681-5.089,2.341-6.204c-0.06-0.076-0.12-0.155-0.177-0.236c-1.362-1.933-0.948-4.458,0.221-6.275
			C24.697,27.192,22.466,27.471,20.644,28.201z"/>
	</g>
</g>
</svg>
