<svg xmlns="http://www.w3.org/2000/svg" width="19.347" height="15.714" viewBox="0 0 19.347 15.714">
  <path id="icon-twitter" d="M17.359,7.3c.012.172.012.344.012.516A11.2,11.2,0,0,1,6.089,19.094,11.205,11.205,0,0,1,0,17.314a8.2,8.2,0,0,0,.958.049A7.941,7.941,0,0,0,5.88,15.669a3.972,3.972,0,0,1-3.707-2.75,5,5,0,0,0,.749.061,4.194,4.194,0,0,0,1.043-.135A3.966,3.966,0,0,1,.786,8.954V8.905a3.993,3.993,0,0,0,1.792.5,3.971,3.971,0,0,1-1.228-5.3A11.271,11.271,0,0,0,9.526,8.254a4.476,4.476,0,0,1-.1-.908A3.969,3.969,0,0,1,16.29,4.633a7.807,7.807,0,0,0,2.517-.958,3.954,3.954,0,0,1-1.743,2.185,7.949,7.949,0,0,0,2.283-.614A8.524,8.524,0,0,1,17.359,7.3Z" transform="translate(0 -3.381)" fill="#2c302c"/>
</svg>
