<svg xmlns="http://www.w3.org/2000/svg" width="20.274" height="20.273" viewBox="0 0 20.274 20.273">
  <path id="icon-whatsapp" d="M14.781,12.149c-.254-.127-1.493-.732-1.723-.816s-.4-.127-.569.127-.651.814-.8.982-.295.177-.546.063a6.856,6.856,0,0,1-2.03-1.254A7.664,7.664,0,0,1,7.714,9.5c-.147-.253-.016-.393.11-.52s.254-.291.381-.442a2.141,2.141,0,0,0,.251-.419.464.464,0,0,0-.021-.443c-.063-.127-.568-1.368-.779-1.864s-.411-.431-.568-.431-.313-.013-.482-.013a.952.952,0,0,0-.673.3A2.82,2.82,0,0,0,5.05,7.766a4.943,4.943,0,0,0,1.03,2.6,11.264,11.264,0,0,0,4.308,3.789c.6.253,1.073.405,1.439.531a3.5,3.5,0,0,0,1.588.1,2.6,2.6,0,0,0,1.7-1.2,2.091,2.091,0,0,0,.152-1.2c-.063-.114-.228-.177-.482-.291m-4.6,6.287h-.014A8.45,8.45,0,0,1,5.9,17.207l-.3-.181-3.168.824.849-3.079-.2-.317A8.378,8.378,0,0,1,16.129,4.119a8.268,8.268,0,0,1,2.457,5.9,8.388,8.388,0,0,1-8.393,8.35M17.334,2.914A10.257,10.257,0,0,0,10.175,0,10.044,10.044,0,0,0,1.433,15.069L0,20.274l5.351-1.4A10.19,10.19,0,0,0,10.175,20.1h.005A10.086,10.086,0,0,0,20.274,10.052a9.963,9.963,0,0,0-2.952-7.105" fill="#2c302c"/>
</svg>
