<?xml version="1.0" encoding="utf-8"?>
<!-- Generator: Adobe Illustrator 16.0.0, SVG Export Plug-In . SVG Version: 6.00 Build 0)  -->
<!DOCTYPE svg PUBLIC "-//W3C//DTD SVG 1.1//EN" "http://www.w3.org/Graphics/SVG/1.1/DTD/svg11.dtd">
<svg version="1.1" id="Layer_1" xmlns="http://www.w3.org/2000/svg" xmlns:xlink="http://www.w3.org/1999/xlink" x="0px" y="0px"
	 width="20.273px" height="20.273px" viewBox="0 0 20.273 20.273" enable-background="new 0 0 20.273 20.273" xml:space="preserve">
<g>
	<path d="M19.663,4.57c-0.38-0.486-0.974-0.783-1.587-0.783H5.186L4.784,2.221C4.551,1.31,3.746,0.676,2.816,0.676h-2.16
		C0.296,0.676,0,0.972,0,1.332s0.296,0.656,0.656,0.656h2.16c0.317,0,0.592,0.212,0.677,0.529l2.582,10.288
		c0.233,0.91,1.038,1.545,1.968,1.545h8.446c0.932,0,1.757-0.635,1.968-1.545l1.588-6.52C20.193,5.692,20.065,5.057,19.663,4.57z
		 M18.754,5.988l-1.588,6.52c-0.085,0.316-0.36,0.529-0.678,0.529H8.043c-0.316,0-0.592-0.213-0.676-0.529L5.525,5.12h12.552
		c0.212,0,0.423,0.105,0.55,0.275C18.754,5.565,18.817,5.777,18.754,5.988z"/>
	<path d="M8.488,15.195c-1.206,0-2.201,0.996-2.201,2.201c0,1.207,0.995,2.201,2.201,2.201c1.207,0,2.201-0.994,2.201-2.201
		C10.689,16.191,9.695,15.195,8.488,15.195z M8.488,18.265c-0.486,0-0.867-0.381-0.867-0.869c0-0.486,0.381-0.867,0.867-0.867
		c0.487,0,0.868,0.381,0.868,0.867C9.356,17.863,8.954,18.265,8.488,18.265z"/>
	<path d="M15.769,15.195c-1.206,0-2.201,0.996-2.201,2.201c0,1.207,0.995,2.201,2.201,2.201c1.207,0,2.201-0.994,2.201-2.201
		C17.949,16.191,16.976,15.195,15.769,15.195z M15.769,18.265c-0.486,0-0.868-0.381-0.868-0.869c0-0.486,0.382-0.867,0.868-0.867
		c0.487,0,0.868,0.381,0.868,0.867C16.637,17.863,16.235,18.265,15.769,18.265z"/>
</g>
</svg>
