<?xml version="1.0" encoding="utf-8"?>
<!-- Generator: Adobe Illustrator 16.0.0, SVG Export Plug-In . SVG Version: 6.00 Build 0)  -->
<!DOCTYPE svg PUBLIC "-//W3C//DTD SVG 1.1//EN" "http://www.w3.org/Graphics/SVG/1.1/DTD/svg11.dtd">
<svg version="1.1" id="Layer_1" xmlns="http://www.w3.org/2000/svg" xmlns:xlink="http://www.w3.org/1999/xlink" x="0px" y="0px"
	 width="20.273px" height="20.273px" viewBox="0 0 20.273 20.273" enable-background="new 0 0 20.273 20.273" xml:space="preserve">
<path d="M16.603,0H3.007C1.13,0-0.392,1.522-0.392,3.399v13.593c0,1.878,1.521,3.399,3.398,3.399h13.596
	c1.876,0,3.396-1.521,3.396-3.399V3.399C19.999,1.522,18.479,0,16.603,0z M18.3,16.992c0,0.94-0.76,1.7-1.697,1.7H3.007
	c-0.938,0-1.7-0.76-1.7-1.7V3.399c0-0.938,0.761-1.7,1.7-1.7h13.596c0.938,0,1.697,0.761,1.697,1.7V16.992z"/>
<path d="M9.804,5.097c-2.815,0-5.098,2.282-5.098,5.098s2.282,5.098,5.098,5.098c2.816,0,5.098-2.282,5.098-5.098
	S12.62,5.097,9.804,5.097z M9.804,13.594c-1.877,0-3.399-1.521-3.399-3.399c0-1.877,1.522-3.399,3.399-3.399
	s3.398,1.522,3.398,3.399C13.202,12.073,11.681,13.594,9.804,13.594z"/>
<path d="M15.325,3.399c0.705,0,1.277,0.57,1.277,1.274s-0.572,1.275-1.277,1.275c-0.701,0-1.273-0.571-1.273-1.275
	S14.624,3.399,15.325,3.399z"/>
</svg>
