<?xml version="1.0" encoding="utf-8"?>
<!-- Generator: Adobe Illustrator 16.0.0, SVG Export Plug-In . SVG Version: 6.00 Build 0)  -->
<!DOCTYPE svg PUBLIC "-//W3C//DTD SVG 1.1//EN" "http://www.w3.org/Graphics/SVG/1.1/DTD/svg11.dtd">
<svg version="1.1" id="Layer_1" xmlns="http://www.w3.org/2000/svg" xmlns:xlink="http://www.w3.org/1999/xlink" x="0px" y="0px"
	 width="27.188px" height="23.26px" viewBox="0 0 27.188 23.26" enable-background="new 0 0 27.188 23.26" xml:space="preserve">
<path d="M18.025,5.568c0-1.541,0.067-2.741-1.168-4.017c-1.346-1.384-2.705-1.205-4.427-1.205c-2.215,0-3.988,1.868-3.988,4.087
	c0,0.749-0.17,1.681,0.547,1.681c0.716,0,0.547-0.932,0.547-1.681c0-1.623,1.279-2.999,2.894-2.999c1.457,0,2.608-0.194,3.645,0.878
	c0.973,0.997,0.857,2,0.857,3.254C16.932,6.286,18.025,6.286,18.025,5.568z"/>
<path d="M17.258,8.252c-1.816,0-1.816,2.767,0,2.767C19.076,11.018,19.076,8.252,17.258,8.252z"/>
<path d="M9.209,8.236c-1.834,0-1.834,2.794,0,2.794C11.043,11.03,11.043,8.236,9.209,8.236z"/>
<path d="M24.953,22.395L21.839,7.097c-0.029-0.269-0.261-0.481-0.542-0.481H5.168c-0.253,0-0.481,0.179-0.53,0.436L1.523,22.349
	c-0.095,0.389,0.182,0.7,0.526,0.7H24.42C24.762,23.049,25.019,22.732,24.953,22.395z M2.712,21.96L5.614,7.705h15.239l2.898,14.255
	H2.712z"/>
</svg>
