<?xml version="1.0" encoding="utf-8"?>
<!-- Generator: Adobe Illustrator 16.0.0, SVG Export Plug-In . SVG Version: 6.00 Build 0)  -->
<!DOCTYPE svg PUBLIC "-//W3C//DTD SVG 1.1//EN" "http://www.w3.org/Graphics/SVG/1.1/DTD/svg11.dtd">
<svg version="1.1" id="Layer_1" xmlns="http://www.w3.org/2000/svg" xmlns:xlink="http://www.w3.org/1999/xlink" x="0px" y="0px"
	 width="20.273px" height="20.273px" viewBox="0 0 20.273 20.273" enable-background="new 0 0 20.273 20.273" xml:space="preserve">
<path d="M6.106,3.306c1.107,0,2.154,0.418,2.931,1.196c0.03,0.03,0.06,0.06,0.09,0.089l1.076,1.107l0.927-0.927l0.149-0.149
	c0.778-0.778,1.825-1.227,2.931-1.227c1.107,0,2.152,0.449,2.961,1.227c1.614,1.615,1.614,4.276,0,5.891l-0.03,0.029l0,0l0,0
	l-0.149,0.15l-6.789,6.789l-5.92-5.922l0.029-0.03l-1.106-1.047c-0.03-0.03-0.061-0.06-0.09-0.09C2.339,9.615,1.92,8.569,1.92,7.462
	s0.449-2.153,1.225-2.96C3.923,3.724,4.97,3.306,6.106,3.306 M6.106,1.81c-1.465,0-2.9,0.568-4.007,1.674
	c-2.213,2.213-2.213,5.802,0,8.014c0.03,0.03,0.06,0.061,0.09,0.091l0,0l8.014,8.015l7.985-8.015l0,0l0,0l0,0l0,0
	c2.213-2.213,2.183-5.802,0-8.015C17.081,2.468,15.646,1.9,14.18,1.9c-1.435,0-2.9,0.538-4.006,1.645l0,0l0,0
	c-0.03-0.03-0.061-0.06-0.091-0.089C9.007,2.349,7.541,1.81,6.106,1.81L6.106,1.81z"/>
</svg>
