<?xml version="1.0" encoding="utf-8"?>
<!-- Generator: Adobe Illustrator 16.0.0, SVG Export Plug-In . SVG Version: 6.00 Build 0)  -->
<!DOCTYPE svg PUBLIC "-//W3C//DTD SVG 1.1//EN" "http://www.w3.org/Graphics/SVG/1.1/DTD/svg11.dtd">
<svg version="1.1" id="Layer_1" xmlns="http://www.w3.org/2000/svg" xmlns:xlink="http://www.w3.org/1999/xlink" x="0px" y="0px"
	 width="80px" height="80px" viewBox="0 0 80 80" enable-background="new 0 0 80 80" xml:space="preserve">
<g>
	<path d="M77.456,44.278l1.342-1.356l-1.36-1.336L62.859,27.269l-2.662,2.711l14.577,14.317l-0.02-2.691l-14.41,14.548l2.699,2.674
		L77.456,44.278z"/>
	<path d="M72.72,44.644h1.898v-3.8H72.72H34.618h-1.9v3.8h1.9H72.72z"/>
	<path d="M50.325,16.375c-1.165-0.757-2.478-1.512-3.915-2.217c-4.137-2.031-8.467-3.255-12.803-3.255
		c-7.267,0-15.15,2.729-21.149,7.68C5.386,24.422,1.33,32.874,1.33,43.38c0,18.637,14.532,32.345,32.277,32.345
		c4.549,0,8.927-1.188,12.986-3.161c1.416-0.687,2.693-1.424,3.814-2.163c0.684-0.452,1.173-0.813,1.448-1.034l-2.381-2.961
		c-0.037,0.029-0.129,0.1-0.272,0.206c-0.249,0.184-0.547,0.392-0.889,0.617c-0.987,0.65-2.121,1.306-3.381,1.917
		c-3.578,1.74-7.41,2.778-11.326,2.778C17.912,71.924,5.13,59.866,5.13,43.38c0-9.362,3.542-16.742,9.749-21.868
		c5.304-4.378,12.329-6.81,18.729-6.81c3.683,0,7.471,1.071,11.129,2.867c1.294,0.634,2.475,1.314,3.518,1.993
		c0.361,0.234,0.68,0.452,0.949,0.645c0.154,0.111,0.256,0.187,0.298,0.22l2.329-3.002C51.543,17.201,51.033,16.835,50.325,16.375z"
		/>
</g>
</svg>
