<svg xmlns="http://www.w3.org/2000/svg" width="68.078" height="41.266" viewBox="0 0 68.078 41.266">
  <g id="icon-truck" transform="translate(-63.658 -9.082)">
    <path id="Path_25" data-name="Path 25" d="M91.527,20.782H86.554a.776.776,0,1,1,0-1.552h4.972a.776.776,0,1,1,0,1.552Z" transform="translate(27.852 12.778)" fill="#231e1a"/>
    <path id="Path_26" data-name="Path 26" d="M99.91,13.216H70.145a.777.777,0,0,1,0-1.554H99.91a.733.733,0,0,1,.777.777A.779.779,0,0,1,99.91,13.216Z" transform="translate(7.19 3.249)" fill="#231e1a"/>
    <path id="Path_27" data-name="Path 27" d="M99.91,21.506H70.145a.777.777,0,0,1,0-1.554H99.91a.734.734,0,0,1,.777.777A.779.779,0,0,1,99.91,21.506Z" transform="translate(7.19 13.687)" fill="#231e1a"/>
    <path id="Path_28" data-name="Path 28" d="M97.086,27.712h-6.14a.389.389,0,0,1,0-.777h6.14a.389.389,0,1,1,0,.777Z" transform="translate(33.873 22.48)" fill="#231e1a"/>
    <path id="Path_29" data-name="Path 29" d="M70.794,19.25h-5.44a.389.389,0,1,1,0-.777h5.44a.389.389,0,1,1,0,.777Z" transform="translate(1.646 11.825)" fill="#231e1a"/>
    <path id="Path_30" data-name="Path 30" d="M72.439,17.633H64.047a.368.368,0,0,1-.389-.389.416.416,0,0,1,.389-.389h8.393a.389.389,0,1,1,0,.777Z" transform="translate(0 9.789)" fill="#231e1a"/>
    <path id="Path_31" data-name="Path 31" d="M95.957,24.239h-9.4a.732.732,0,0,1-.777-.775V15.225a.733.733,0,0,1,.777-.777h4.9a.838.838,0,0,1,.544.233L96.58,18.8a.849.849,0,0,1,.233.544v4.121A.915.915,0,0,1,95.957,24.239Zm-8.626-1.554h7.851v-3.03L91.138,16h-3.73v6.683Z" transform="translate(27.852 6.757)" fill="#231e1a"/>
    <path id="Path_32" data-name="Path 32" d="M89.853,24.561a1.943,1.943,0,1,1-1.943,1.945A1.944,1.944,0,0,1,89.853,24.561Z" transform="translate(30.537 19.491)" fill="#231e1a"/>
    <path id="Path_33" data-name="Path 33" d="M73.106,24.665a1.709,1.709,0,1,1-1.708,1.71A1.71,1.71,0,0,1,73.106,24.665Z" transform="translate(9.746 19.622)" fill="#231e1a"/>
    <path id="Path_34" data-name="Path 34" d="M127.364,39.235h-2.485V26.024a.7.7,0,0,0-.235-.544l-8.316-8.393a.7.7,0,0,0-.544-.235h-7.537V13.743a4.675,4.675,0,0,0-4.663-4.661H75.373a4.674,4.674,0,0,0-4.663,4.661V39.933a.732.732,0,0,0,.775.777h1.478a5.261,5.261,0,0,0,2.176,3.5,4.17,4.17,0,0,0-.312,1.708,4.575,4.575,0,0,0,1.557,3.418H66.9a.389.389,0,0,0,0,.777h10.88a4.326,4.326,0,0,0,1.4.235,4,4,0,0,0,1.4-.235h5.131a.389.389,0,0,0,0-.777H81.977a4.446,4.446,0,0,0,1.554-3.418,2.168,2.168,0,0,0-.077-.7h28.911a2.109,2.109,0,0,0-.079.7,4.186,4.186,0,0,0,1.478,3.265H89.516a.389.389,0,1,0,0,.777h25.569a4.188,4.188,0,0,0,1.71.312,4.428,4.428,0,0,0,4.428-4.43,2.128,2.128,0,0,0-.079-.7h1.712a5.289,5.289,0,0,0,5.284-5.284A.766.766,0,0,0,127.364,39.235Zm-19.04-20.83h7.15l7.848,7.927v12.9h-15ZM73.74,39.235H72.265V13.743a3.117,3.117,0,0,1,3.109-3.106h28.287a3.117,3.117,0,0,1,3.109,3.106V39.158H73.74ZM76.928,46a2.254,2.254,0,1,1,2.252,2.252A2.255,2.255,0,0,1,76.928,46ZM116.8,48.482A2.487,2.487,0,1,1,119.283,46,2.453,2.453,0,0,1,116.8,48.482Zm6.061-4.74h-2.331a4.366,4.366,0,0,0-7.462,0H82.989a4.446,4.446,0,0,0-3.732-2.1,4.344,4.344,0,0,0-3.185,1.4,4.136,4.136,0,0,1-1.478-2.252H126.51A3.826,3.826,0,0,1,122.857,43.742Z" transform="translate(3.595 0)" fill="#231e1a"/>
  </g>
</svg>
