<svg xmlns="http://www.w3.org/2000/svg" width="50.47" height="41.08" viewBox="0 0 50.47 41.08">
  <g id="icon-support" transform="translate(-64.208 -5.16)">
    <path id="Path_38" data-name="Path 38" d="M89.443,5.16A16.585,16.585,0,0,0,72.828,21.775.587.587,0,1,0,74,21.792v-.017a15.441,15.441,0,0,1,30.882,0,.587.587,0,0,0,1.174.017v-.017A16.585,16.585,0,0,0,89.443,5.16ZM68.737,24.509A4.607,4.607,0,0,0,64.208,29.2v3.741a4.625,4.625,0,0,0,4.529,4.714h4.64a.587.587,0,0,0,.587-.587V25.094a.585.585,0,0,0-.587-.585Zm36.643,0a.583.583,0,0,0-.459.585V41a4.085,4.085,0,0,1-4.016,4.07H94.743a3.23,3.23,0,0,0-2.477-5.3H86.619a3.237,3.237,0,0,0,0,6.474h14.286A5.258,5.258,0,0,0,106.1,41V37.657h4.052a4.625,4.625,0,0,0,4.529-4.714V29.2a4.6,4.6,0,0,0-4.529-4.693h-4.64A.4.4,0,0,0,105.38,24.509ZM68.737,25.683h4.053v10.8H68.737a3.43,3.43,0,0,1-3.356-3.542V29.2A3.41,3.41,0,0,1,68.737,25.683Zm37.359,0h4.052A3.4,3.4,0,0,1,113.5,29.2v3.741a3.429,3.429,0,0,1-3.354,3.542H106.1ZM86.619,40.94h5.647a2.063,2.063,0,0,1,.532,4.053.587.587,0,0,0-.164.073H86.619a2.063,2.063,0,0,1,0-4.127Z" transform="translate(0)"/>
  </g>
</svg>
