<?xml version="1.0" encoding="utf-8"?>
<!-- Generator: Adobe Illustrator 16.0.0, SVG Export Plug-In . SVG Version: 6.00 Build 0)  -->
<!DOCTYPE svg PUBLIC "-//W3C//DTD SVG 1.1//EN" "http://www.w3.org/Graphics/SVG/1.1/DTD/svg11.dtd">
<svg version="1.1" id="Layer_1" xmlns="http://www.w3.org/2000/svg" xmlns:xlink="http://www.w3.org/1999/xlink" x="0px" y="0px"
	 width="80px" height="80px" viewBox="0 0 80 80" enable-background="new 0 0 80 80" xml:space="preserve">
<path d="M24.904,19.446h10.233c1.607,0,2.96-1.353,2.96-2.959V6.844c0-1.606-1.354-2.959-2.96-2.959H24.904
	c-1.606,0-2.959,1.353-2.959,2.959v9.727C21.945,18.177,23.298,19.446,24.904,19.446z"/>
<path d="M55.18,23.083H44.947c-1.605,0-2.96,1.353-2.96,2.96v9.725c0,1.607,1.354,2.96,2.96,2.96H55.18
	c1.608,0,2.961-1.354,2.961-2.96v-9.725C58.141,24.436,56.788,23.083,55.18,23.083z"/>
<path d="M24.904,57.926h10.233c1.607,0,2.96-1.353,2.96-2.961v-9.726c0-1.605-1.354-2.959-2.96-2.959H24.904
	c-1.606,0-2.959,1.354-2.959,2.959v9.726C21.945,56.573,23.298,57.926,24.904,57.926z"/>
<path d="M55.18,42.28H44.947c-0.169,0-0.253,0-0.422,0l-6.597-6.259c0-0.169,0-0.253,0-0.422v-9.557c0-1.607-1.354-2.96-2.959-2.96
	H24.904c-1.606,0-2.959,1.353-2.959,2.96v9.218l-6.682,7.02c-0.084,0-0.169,0-0.169,0H4.861c-1.606,0-2.959,1.354-2.959,2.959v9.726
	c0,1.608,1.353,2.961,2.959,2.961h10.233c1.607,0,2.96-1.353,2.96-2.961v-9.386l6.512-6.937c0.085,0,0.254,0,0.338,0h9.725
	l7.443,7.021v9.218l-6.343,6.681c-0.169,0-0.338-0.085-0.592-0.085H24.904c-1.606,0-2.959,1.354-2.959,2.96v9.728
	c0,1.605,1.353,2.959,2.959,2.959h10.233c1.607,0,2.96-1.354,2.96-2.959v-8.966l6.935-7.272l0,0H55.18
	c1.608,0,2.961-1.353,2.961-2.961v-9.726C58.141,43.634,56.788,42.28,55.18,42.28z"/>
<path d="M75.056,23.083h-9.304l-7.611-7.189V6.844c0-1.606-1.353-2.959-2.961-2.959H44.947c-1.605,0-2.96,1.353-2.96,2.959v9.727
	c0,1.606,1.354,2.959,2.96,2.959H55.18c0.171,0,0.339,0,0.509-0.084l6.26,5.92c0,0.253,0,0.424,0,0.677v9.725
	c0,1.607,1.353,2.96,2.958,2.96H75.14c1.606,0,2.959-1.354,2.959-2.96v-9.725C78.015,24.436,76.661,23.083,75.056,23.083z"/>
<path d="M75.056,42.28H64.823c-1.608,0-2.961,1.354-2.961,2.959v9.726c0,1.608,1.353,2.961,2.961,2.961h10.232
	c1.605,0,2.959-1.353,2.959-2.961v-9.726C78.015,43.634,76.661,42.28,75.056,42.28z"/>
<path d="M4.861,38.728h10.233c1.607,0,2.96-1.354,2.96-2.96v-9.725c0-1.607-1.353-2.96-2.96-2.96H4.861
	c-1.606,0-2.959,1.353-2.959,2.96v9.725C1.901,37.375,3.254,38.728,4.861,38.728z"/>
<path d="M55.18,61.562H44.947c-1.605,0-2.96,1.354-2.96,2.96v9.727c0,1.606,1.354,2.959,2.96,2.959H55.18
	c1.608,0,2.961-1.353,2.961-2.959v-9.727C58.141,62.831,56.788,61.562,55.18,61.562z"/>
</svg>
