<svg xmlns="http://www.w3.org/2000/svg" width="21.641" height="15.217" viewBox="0 0 21.641 15.217">
  <path id="icon-youtube" d="M22.239,6.881a2.719,2.719,0,0,0-1.913-1.926C18.638,4.5,11.871,4.5,11.871,4.5s-6.767,0-8.455.455A2.719,2.719,0,0,0,1.5,6.881a28.526,28.526,0,0,0-.452,5.243A28.526,28.526,0,0,0,1.5,17.366a2.679,2.679,0,0,0,1.913,1.895c1.688.455,8.455.455,8.455.455s6.767,0,8.455-.455a2.679,2.679,0,0,0,1.913-1.895,28.526,28.526,0,0,0,.452-5.243,28.526,28.526,0,0,0-.452-5.243ZM9.657,15.341V8.906l5.656,3.218L9.657,15.341Z" transform="translate(-1.05 -4.5)" fill="#2c302c"/>
</svg>
