<?xml version="1.0" encoding="utf-8"?>
<!-- Generator: Adobe Illustrator 16.0.0, SVG Export Plug-In . SVG Version: 6.00 Build 0)  -->
<!DOCTYPE svg PUBLIC "-//W3C//DTD SVG 1.1//EN" "http://www.w3.org/Graphics/SVG/1.1/DTD/svg11.dtd">
<svg version="1.1" id="Layer_1" xmlns="http://www.w3.org/2000/svg" xmlns:xlink="http://www.w3.org/1999/xlink" x="0px" y="0px"
	 width="23.32px" height="24.313px" viewBox="0 0 23.32 24.313" enable-background="new 0 0 23.32 24.313" xml:space="preserve">
<g>
	<path d="M6.151,13.264c1.456,1.248,3.396,2.01,5.544,2.01c2.08,0,4.02-0.762,5.544-2.01c2.495,0,4.435,0.623,6.098,2.633
		c-0.9,5.196-6.929,7.692-11.642,7.692c-4.781,0-10.741-2.496-11.711-7.692C1.647,13.887,3.588,13.264,6.151,13.264z M21.744,16.312
		c-1.109-1.108-2.427-1.523-4.021-1.593c-1.801,1.316-3.88,2.009-6.028,2.009c-2.217,0-4.296-0.692-6.029-2.009
		c-1.663,0.069-2.911,0.484-4.089,1.593c1.248,3.95,6.307,5.823,10.118,5.823C15.437,22.135,20.565,20.262,21.744,16.312z"/>
	<path d="M11.695,0.721c3.118,0,5.683,2.564,5.683,5.751c0,3.188-2.564,5.751-5.683,5.751c-3.187,0-5.752-2.563-5.752-5.751
		C5.943,3.285,8.508,0.721,11.695,0.721z M11.695,2.177c-2.355,0-4.296,1.939-4.296,4.296s1.941,4.296,4.296,4.296
		c2.356,0,4.228-1.94,4.228-4.296S14.052,2.177,11.695,2.177z"/>
</g>
</svg>
