<?xml version="1.0" encoding="utf-8"?>
<!-- Generator: Adobe Illustrator 16.0.0, SVG Export Plug-In . SVG Version: 6.00 Build 0)  -->
<!DOCTYPE svg PUBLIC "-//W3C//DTD SVG 1.1//EN" "http://www.w3.org/Graphics/SVG/1.1/DTD/svg11.dtd">
<svg version="1.1" id="Layer_1" xmlns="http://www.w3.org/2000/svg" xmlns:xlink="http://www.w3.org/1999/xlink" x="0px" y="0px"
	 width="24.414px" height="24.414px" viewBox="0 0 24.414 24.414" enable-background="new 0 0 24.414 24.414" xml:space="preserve">
<path d="M11.446,0.298c-6.098,0-11.059,4.961-11.059,11.059c0,6.098,4.961,11.059,11.059,11.059c2.743,0,5.254-1.006,7.188-2.666
	l4.119,4.119c0.154,0.153,0.367,0.248,0.603,0.248c0.47,0,0.851-0.381,0.851-0.851c0-0.235-0.097-0.449-0.25-0.603l-4.119-4.119
	c1.659-1.934,2.668-4.444,2.668-7.188C22.506,5.258,17.544,0.297,11.446,0.298L11.446,0.298z M11.446,1.999
	c5.177,0,9.356,4.179,9.356,9.357c0,5.178-4.18,9.357-9.356,9.357c-5.178,0-9.357-4.18-9.357-9.357
	C2.089,6.178,6.268,1.999,11.446,1.999L11.446,1.999z"/>
</svg>
