<svg xmlns="http://www.w3.org/2000/svg" width="160" height="81.562" viewBox="0 0 160 81.562">
  <g id="Group_1" data-name="Group 1" transform="translate(-34.97 -129.146)">
    <g id="Group_25" data-name="Group 25" transform="translate(97.558 129.146)">
      <path id="Path_145" data-name="Path 145" d="M155.511,129.146a6.56,6.56,0,1,0,6.559,6.56A6.559,6.559,0,0,0,155.511,129.146Z" transform="translate(-148.951 -129.146)" fill="#45b25f"/>
      <path id="Path_146" data-name="Path 146" d="M157.624,185.345c-1.288-.6-2.518-1.167-3.633-.009l-.135.6,3.984,1.892,3.722-1.768C160.216,186.545,158.9,185.934,157.624,185.345Z" transform="translate(-151.178 -154.355)" fill="#45b25f"/>
      <path id="Path_147" data-name="Path 147" d="M158,180.5c-1.017-.472-2-.926-2.913-.527l-.4,1.781c1.162-.555,2.4.017,3.679.611,1.179.547,2.407,1.116,3.635.467l-.348-1.532A5.6,5.6,0,0,1,158,180.5Z" transform="translate(-151.552 -152.152)" fill="#45b25f"/>
      <path id="Path_148" data-name="Path 148" d="M161.977,169.613,160.317,156h-3.132l-1.323,12.123a5.65,5.65,0,0,1,3.033.81A4.746,4.746,0,0,0,161.977,169.613Z" transform="translate(-152.089 -141.339)" fill="#45b25f"/>
    </g>
    <g id="Group_26" data-name="Group 26" transform="translate(53.099 162.96)">
      <path id="Path_149" data-name="Path 149" d="M88.761,191.245a2.289,2.289,0,0,1,.77,1.8v25.591a2.4,2.4,0,0,1-.728,1.84,3.05,3.05,0,0,1-3.851,0,2.4,2.4,0,0,1-.728-1.84v-1.07a6.693,6.693,0,0,1-2.718,2.739,8.208,8.208,0,0,1-4.044.984,8.671,8.671,0,0,1-4.814-1.369,9.073,9.073,0,0,1-3.3-3.874,13.372,13.372,0,0,1-1.177-5.755,12.955,12.955,0,0,1,1.177-5.691,8.639,8.639,0,0,1,8.109-5.093,8.381,8.381,0,0,1,4.023.942,6.536,6.536,0,0,1,2.7,2.653V192.957a2.272,2.272,0,0,1,.706-1.733,2.673,2.673,0,0,1,1.9-.663A2.857,2.857,0,0,1,88.761,191.245Zm-5.927,24.136a7.89,7.89,0,0,0,1.391-5.006,7.8,7.8,0,0,0-1.391-4.985,4.733,4.733,0,0,0-3.916-1.734,4.872,4.872,0,0,0-3.98,1.713,7.546,7.546,0,0,0-1.412,4.921,7.993,7.993,0,0,0,1.412,5.05,5.275,5.275,0,0,0,7.9.042Z" transform="translate(-68.177 -190.56)" fill="#373e37"/>
      <path id="Path_150" data-name="Path 150" d="M130.759,208.106v10.527a2.5,2.5,0,0,1-.706,1.884,2.682,2.682,0,0,1-1.947.684,2.758,2.758,0,0,1-1.969-.684,2.459,2.459,0,0,1-.727-1.884V208.106a4.957,4.957,0,0,0-.92-3.317,3.655,3.655,0,0,0-2.889-1.048,4.884,4.884,0,0,0-3.7,1.455,5.4,5.4,0,0,0-1.391,3.894v9.543a2.459,2.459,0,0,1-.728,1.884,2.758,2.758,0,0,1-1.968.684,2.68,2.68,0,0,1-1.947-.684,2.5,2.5,0,0,1-.706-1.884V193.042a2.32,2.32,0,0,1,.749-1.8,2.775,2.775,0,0,1,1.947-.685,2.8,2.8,0,0,1,1.925.642,2.22,2.22,0,0,1,.728,1.755v9.972a7,7,0,0,1,2.846-2.546,9.012,9.012,0,0,1,4.044-.878Q130.758,199.5,130.759,208.106Z" transform="translate(-87.693 -190.56)" fill="#373e37"/>
    </g>
    <path id="Path_151" data-name="Path 151" d="M154.625,227.6s-3.1-39.147,26.9-48.193" transform="translate(-53.871 -22.386)" fill="none" stroke="#373e37" stroke-linecap="round" stroke-miterlimit="10" stroke-width="7"/>
    <path id="Path_152" data-name="Path 152" d="M135.923,192.8a36.8,36.8,0,0,0-19.4-13.83" transform="translate(-36.759 -22.447)" fill="none" stroke="#373e37" stroke-linecap="round" stroke-miterlimit="10" stroke-width="7"/>
    <g id="Group_27" data-name="Group 27" transform="translate(111.425 163.111)">
      <path id="Path_153" data-name="Path 153" d="M189.83,209.1q2.119,2.163,2.119,6.57v10.441a2.417,2.417,0,0,1-.685,1.82,2.594,2.594,0,0,1-1.883.663,2.5,2.5,0,0,1-1.819-.685,2.388,2.388,0,0,1-.706-1.8v-.941a5.584,5.584,0,0,1-2.29,2.61,6.87,6.87,0,0,1-3.616.942,8.394,8.394,0,0,1-3.809-.856,6.767,6.767,0,0,1-2.7-2.353,5.941,5.941,0,0,1-.985-3.338,5.287,5.287,0,0,1,1.177-3.638,7.076,7.076,0,0,1,3.83-1.925,34.893,34.893,0,0,1,7.318-.6h1.07v-.984a4.382,4.382,0,0,0-.9-3.059,3.823,3.823,0,0,0-2.91-.963,9.238,9.238,0,0,0-2.525.364q-1.283.364-3.038,1.048a4.281,4.281,0,0,1-1.626.557,1.607,1.607,0,0,1-1.262-.557,2.111,2.111,0,0,1-.492-1.454,2.188,2.188,0,0,1,.364-1.263,3.44,3.44,0,0,1,1.22-1.006,13.951,13.951,0,0,1,3.573-1.284,18.46,18.46,0,0,1,4.087-.471Q187.712,206.943,189.83,209.1Zm-4.322,14.337a5.185,5.185,0,0,0,1.348-3.7v-.9h-.771a29.539,29.539,0,0,0-4.45.257,4.314,4.314,0,0,0-2.268.9,2.288,2.288,0,0,0-.685,1.755,2.906,2.906,0,0,0,.963,2.247,3.4,3.4,0,0,0,2.375.877A4.568,4.568,0,0,0,185.508,223.441Z" transform="translate(-173.461 -197.999)" fill="#373e37"/>
      <path id="Path_154" data-name="Path 154" d="M227.874,208.313a9.09,9.09,0,0,1,3.3,3.873,13.4,13.4,0,0,1,1.177,5.756,12.968,12.968,0,0,1-1.177,5.691,8.64,8.64,0,0,1-8.111,5.093,8.283,8.283,0,0,1-3.98-.942,6.593,6.593,0,0,1-2.7-2.61v8.73a2.218,2.218,0,0,1-.728,1.754,2.8,2.8,0,0,1-1.924.643,2.772,2.772,0,0,1-1.947-.685,2.32,2.32,0,0,1-.75-1.8V209.554a2.447,2.447,0,0,1,.706-1.84,2.622,2.622,0,0,1,1.9-.684,2.7,2.7,0,0,1,1.926.684,2.409,2.409,0,0,1,.727,1.84v1.069a6.571,6.571,0,0,1,2.717-2.718,8.347,8.347,0,0,1,4.044-.963A8.677,8.677,0,0,1,227.874,208.313Zm-2.29,14.529a7.567,7.567,0,0,0,1.412-4.9,8,8,0,0,0-1.412-5.051,5.275,5.275,0,0,0-7.9-.042,7.888,7.888,0,0,0-1.391,5.006,7.808,7.808,0,0,0,1.391,4.964,5.34,5.34,0,0,0,7.9.022Z" transform="translate(-190.521 -197.999)" fill="#373e37"/>
      <path id="Path_155" data-name="Path 155" d="M268.878,209.1q2.119,2.163,2.119,6.57v10.441a2.415,2.415,0,0,1-.685,1.82,2.591,2.591,0,0,1-1.882.663,2.5,2.5,0,0,1-1.819-.685,2.388,2.388,0,0,1-.706-1.8v-.941a5.584,5.584,0,0,1-2.29,2.61,6.868,6.868,0,0,1-3.616.942,8.4,8.4,0,0,1-3.81-.856,6.774,6.774,0,0,1-2.7-2.353,5.944,5.944,0,0,1-.984-3.338,5.287,5.287,0,0,1,1.177-3.638,7.076,7.076,0,0,1,3.83-1.925,34.9,34.9,0,0,1,7.318-.6h1.07v-.984a4.382,4.382,0,0,0-.9-3.059,3.822,3.822,0,0,0-2.91-.963,9.247,9.247,0,0,0-2.526.364q-1.283.364-3.038,1.048a4.281,4.281,0,0,1-1.626.557,1.607,1.607,0,0,1-1.262-.557,2.11,2.11,0,0,1-.492-1.454,2.187,2.187,0,0,1,.364-1.263,3.445,3.445,0,0,1,1.22-1.006,13.958,13.958,0,0,1,3.573-1.284,18.456,18.456,0,0,1,4.087-.471Q266.759,206.943,268.878,209.1Zm-4.322,14.337a5.183,5.183,0,0,0,1.348-3.7v-.9h-.77a29.545,29.545,0,0,0-4.451.257,4.318,4.318,0,0,0-2.268.9,2.29,2.29,0,0,0-.685,1.755,2.9,2.9,0,0,0,.964,2.247,3.394,3.394,0,0,0,2.374.877A4.567,4.567,0,0,0,264.555,223.441Z" transform="translate(-209.353 -197.999)" fill="#373e37"/>
      <path id="Path_156" data-name="Path 156" d="M309.552,218.634a2.525,2.525,0,0,1-.705,1.755,2.173,2.173,0,0,1-1.648.77,2.511,2.511,0,0,1-1.754-.77l-10.014-9.073v7.317a2.313,2.313,0,0,1-.77,1.884,2.906,2.906,0,0,1-1.926.641,2.819,2.819,0,0,1-1.9-.641,2.343,2.343,0,0,1-.749-1.884V193.085a2.344,2.344,0,0,1,.749-1.883,2.82,2.82,0,0,1,1.9-.642,2.906,2.906,0,0,1,1.926.642,2.314,2.314,0,0,1,.77,1.883v16.092l9.158-8.773a2.417,2.417,0,0,1,1.755-.771,2.485,2.485,0,0,1,2.439,2.439,2.5,2.5,0,0,1-.813,1.8l-6.719,6.248,7.446,6.676A2.482,2.482,0,0,1,309.552,218.634Z" transform="translate(-226.413 -190.56)" fill="#373e37"/>
    </g>
    <text id="ONLINE" transform="translate(34.97 160.068)" fill="#45b25f" font-size="11" font-family="Rubik-Medium, Rubik" font-weight="500" letter-spacing="0.01em"><tspan x="0" y="0">ONLINE</tspan></text>
    <text id="Anywhere_Anytime" data-name="Anywhere, Anytime" transform="translate(194.97 208.708)" fill="#45b25f" font-size="9.25" font-family="Rubik-Regular, Rubik" letter-spacing="0.01em"><tspan x="-85.128" y="0">Anywhere, Anytime</tspan></text>
    <path id="Path_157" data-name="Path 157" d="M53.678,217.614,41.824,192.237a2.763,2.763,0,0,0-1.177-1.3,3.377,3.377,0,0,0-1.69-.45,3.421,3.421,0,0,0-.6.058,2.138,2.138,0,0,0-1.438.665,2.417,2.417,0,0,0-.589,1.827v25.258a2.481,2.481,0,0,0,.589,1.847,2.321,2.321,0,0,0,1.779.708,2.473,2.473,0,0,0,1.862-.708,2.534,2.534,0,0,0,.684-1.847v-4.6h5.284l2.568,5.812a2.53,2.53,0,0,0,.942,1.172,2.461,2.461,0,0,0,1.284.383,2.691,2.691,0,0,0,1.819-.675,2.117,2.117,0,0,0,.792-1.664A2.621,2.621,0,0,0,53.678,217.614Zm-12.431-8.287v-7.669l3.4,7.669Z" transform="translate(-0.619 -27.566)" fill="#373e37"/>
  </g>
</svg>
