<svg xmlns="http://www.w3.org/2000/svg" width="204.097" height="89.525" viewBox="0 0 204.097 89.525">
  <g id="Group_75" data-name="Group 75" transform="translate(-34.97 -129.146)">
    <g id="Group_25" data-name="Group 25" transform="translate(105.528 129.146)">
      <path id="Path_145" data-name="Path 145" d="M156.389,129.146a7.438,7.438,0,1,0,7.437,7.438A7.438,7.438,0,0,0,156.389,129.146Z" transform="translate(-148.951 -129.146)" fill="#8f958f"/>
      <path id="Path_146" data-name="Path 146" d="M158.128,185.436c-1.46-.677-2.856-1.323-4.119-.01l-.153.675,4.518,2.146,4.22-2C161.067,186.8,159.571,186.1,158.128,185.436Z" transform="translate(-150.82 -150.297)" fill="#8f958f"/>
      <path id="Path_147" data-name="Path 147" d="M158.442,180.586c-1.153-.535-2.264-1.05-3.3-.6l-.459,2.02c1.318-.63,2.718.019,4.171.693,1.336.62,2.729,1.266,4.122.529l-.395-1.738C161.165,181.848,159.78,181.207,158.442,180.586Z" transform="translate(-151.134 -148.449)" fill="#8f958f"/>
      <path id="Path_148" data-name="Path 148" d="M162.8,171.436,160.914,156h-3.551l-1.5,13.746a6.407,6.407,0,0,1,3.439.919A5.381,5.381,0,0,0,162.8,171.436Z" transform="translate(-151.584 -139.376)" fill="#8f958f"/>
    </g>
    <g id="Group_26" data-name="Group 26" transform="translate(55.526 167.163)">
      <path id="Path_149" data-name="Path 149" d="M91.517,191.337a2.6,2.6,0,0,1,.873,2.038v29.017a2.724,2.724,0,0,1-.825,2.087,3.459,3.459,0,0,1-4.367,0,2.724,2.724,0,0,1-.825-2.087v-1.213a7.589,7.589,0,0,1-3.082,3.106,9.307,9.307,0,0,1-4.586,1.116,9.832,9.832,0,0,1-5.458-1.553,10.288,10.288,0,0,1-3.737-4.393,15.162,15.162,0,0,1-1.334-6.526,14.689,14.689,0,0,1,1.334-6.453,9.8,9.8,0,0,1,9.2-5.775,9.5,9.5,0,0,1,4.562,1.068,7.411,7.411,0,0,1,3.057,3.008v-11.5a2.576,2.576,0,0,1,.8-1.965,3.03,3.03,0,0,1,2.159-.752A3.24,3.24,0,0,1,91.517,191.337ZM84.8,218.7a8.947,8.947,0,0,0,1.577-5.677,8.847,8.847,0,0,0-1.577-5.652,5.366,5.366,0,0,0-4.44-1.966,5.524,5.524,0,0,0-4.513,1.942,8.556,8.556,0,0,0-1.6,5.579,9.063,9.063,0,0,0,1.6,5.726,5.981,5.981,0,0,0,8.952.048Z" transform="translate(-68.177 -190.56)" fill="#8f958f"/>
      <path id="Path_150" data-name="Path 150" d="M133.383,210.455v11.937a2.836,2.836,0,0,1-.8,2.136,3.041,3.041,0,0,1-2.208.776,3.127,3.127,0,0,1-2.232-.776,2.788,2.788,0,0,1-.825-2.136V210.455a5.62,5.62,0,0,0-1.043-3.761A4.144,4.144,0,0,0,123,205.506a5.537,5.537,0,0,0-4.2,1.65,6.122,6.122,0,0,0-1.577,4.415v10.821a2.789,2.789,0,0,1-.825,2.136,3.128,3.128,0,0,1-2.232.776,3.039,3.039,0,0,1-2.208-.776,2.836,2.836,0,0,1-.8-2.136V193.375a2.63,2.63,0,0,1,.849-2.038,3.146,3.146,0,0,1,2.208-.777,3.179,3.179,0,0,1,2.183.728,2.517,2.517,0,0,1,.825,1.99v11.307a7.94,7.94,0,0,1,3.227-2.887,10.219,10.219,0,0,1,4.586-1Q133.382,200.7,133.383,210.455Z" transform="translate(-84.552 -190.56)" fill="#8f958f"/>
    </g>
    <path id="Path_151" data-name="Path 151" d="M154.638,234.056s-3.514-44.387,30.5-54.645" transform="translate(-45.55 -19.149)" fill="none" stroke="#8f958f" stroke-linecap="round" stroke-miterlimit="10" stroke-width="7"/>
    <path id="Path_152" data-name="Path 152" d="M138.521,194.647a41.722,41.722,0,0,0-22-15.682" transform="translate(-31.069 -18.979)" fill="none" stroke="#8f958f" stroke-linecap="round" stroke-miterlimit="10" stroke-width="7"/>
    <g id="Group_27" data-name="Group 27" transform="translate(120.7 167.163)">
      <path id="Path_153" data-name="Path 153" d="M192.021,209.393q2.4,2.452,2.4,7.449v11.839a2.74,2.74,0,0,1-.776,2.063,2.941,2.941,0,0,1-2.135.751,2.836,2.836,0,0,1-2.063-.776,2.708,2.708,0,0,1-.8-2.038v-1.067a6.331,6.331,0,0,1-2.6,2.959,7.789,7.789,0,0,1-4.1,1.068,9.518,9.518,0,0,1-4.318-.971A7.673,7.673,0,0,1,174.578,228a6.736,6.736,0,0,1-1.117-3.785,6,6,0,0,1,1.335-4.125,8.023,8.023,0,0,1,4.343-2.183,39.563,39.563,0,0,1,8.3-.68h1.213v-1.115a4.968,4.968,0,0,0-1.019-3.469,4.335,4.335,0,0,0-3.3-1.092,10.475,10.475,0,0,0-2.863.412q-1.455.412-3.445,1.189a4.854,4.854,0,0,1-1.844.631,1.822,1.822,0,0,1-1.431-.631,2.393,2.393,0,0,1-.558-1.649,2.48,2.48,0,0,1,.413-1.432,3.9,3.9,0,0,1,1.383-1.14,15.819,15.819,0,0,1,4.052-1.456,20.932,20.932,0,0,1,4.634-.534Q189.62,206.943,192.021,209.393Zm-4.9,16.256a5.879,5.879,0,0,0,1.529-4.2v-1.02h-.874a33.493,33.493,0,0,0-5.046.292,4.891,4.891,0,0,0-2.572,1.019,2.594,2.594,0,0,0-.777,1.99,3.3,3.3,0,0,0,1.092,2.548,3.852,3.852,0,0,0,2.693.994A5.18,5.18,0,0,0,187.121,225.65Z" transform="translate(-173.461 -196.801)" fill="#8f958f"/>
      <path id="Path_154" data-name="Path 154" d="M230.129,208.5a10.307,10.307,0,0,1,3.736,4.391,15.189,15.189,0,0,1,1.334,6.527,14.7,14.7,0,0,1-1.334,6.453,9.8,9.8,0,0,1-9.2,5.774,9.392,9.392,0,0,1-4.513-1.068,7.476,7.476,0,0,1-3.056-2.959v9.9a2.515,2.515,0,0,1-.826,1.989,3.176,3.176,0,0,1-2.182.729,3.144,3.144,0,0,1-2.208-.776,2.631,2.631,0,0,1-.85-2.038V209.9a2.774,2.774,0,0,1,.8-2.087,2.973,2.973,0,0,1,2.16-.776,3.063,3.063,0,0,1,2.184.776A2.731,2.731,0,0,1,217,209.9v1.213a7.451,7.451,0,0,1,3.081-3.082,9.465,9.465,0,0,1,4.585-1.092A9.838,9.838,0,0,1,230.129,208.5Zm-2.6,16.474a8.581,8.581,0,0,0,1.6-5.556,9.071,9.071,0,0,0-1.6-5.727,5.981,5.981,0,0,0-8.952-.048A8.944,8.944,0,0,0,217,219.317a8.853,8.853,0,0,0,1.577,5.628,6.055,6.055,0,0,0,8.952.025Z" transform="translate(-187.775 -196.801)" fill="#8f958f"/>
      <path id="Path_155" data-name="Path 155" d="M271.069,209.393q2.4,2.452,2.4,7.449v11.839a2.738,2.738,0,0,1-.777,2.063,2.938,2.938,0,0,1-2.134.751,2.837,2.837,0,0,1-2.063-.776,2.708,2.708,0,0,1-.8-2.038v-1.067a6.331,6.331,0,0,1-2.6,2.959,7.787,7.787,0,0,1-4.1,1.068,9.523,9.523,0,0,1-4.32-.971A7.681,7.681,0,0,1,253.624,228a6.74,6.74,0,0,1-1.115-3.785,6,6,0,0,1,1.334-4.125,8.023,8.023,0,0,1,4.342-2.183,39.566,39.566,0,0,1,8.3-.68H267.7v-1.115a4.968,4.968,0,0,0-1.02-3.469,4.333,4.333,0,0,0-3.3-1.092,10.486,10.486,0,0,0-2.864.412q-1.455.412-3.444,1.189a4.854,4.854,0,0,1-1.844.631,1.822,1.822,0,0,1-1.431-.631,2.393,2.393,0,0,1-.558-1.649,2.48,2.48,0,0,1,.412-1.432,3.906,3.906,0,0,1,1.383-1.14,15.827,15.827,0,0,1,4.052-1.456,20.928,20.928,0,0,1,4.634-.534Q268.667,206.943,271.069,209.393Zm-4.9,16.256a5.876,5.876,0,0,0,1.529-4.2v-1.02h-.873a33.5,33.5,0,0,0-5.047.292,4.9,4.9,0,0,0-2.572,1.019,2.6,2.6,0,0,0-.776,1.99,3.291,3.291,0,0,0,1.093,2.548,3.848,3.848,0,0,0,2.692.994A5.179,5.179,0,0,0,266.168,225.65Z" transform="translate(-203.576 -196.801)" fill="#8f958f"/>
      <path id="Path_156" data-name="Path 156" d="M312.159,222.392a2.864,2.864,0,0,1-.8,1.99,2.464,2.464,0,0,1-1.869.873,2.847,2.847,0,0,1-1.989-.873L296.146,214.1v8.3a2.622,2.622,0,0,1-.873,2.136,3.3,3.3,0,0,1-2.183.727,3.2,3.2,0,0,1-2.159-.727,2.656,2.656,0,0,1-.849-2.136V193.423a2.658,2.658,0,0,1,.849-2.135,3.2,3.2,0,0,1,2.159-.728,3.3,3.3,0,0,1,2.183.728,2.623,2.623,0,0,1,.873,2.135v18.246l10.384-9.947a2.741,2.741,0,0,1,1.99-.874,2.818,2.818,0,0,1,2.766,2.766,2.83,2.83,0,0,1-.922,2.038l-7.618,7.084,8.443,7.57A2.814,2.814,0,0,1,312.159,222.392Z" transform="translate(-217.889 -190.56)" fill="#8f958f"/>
    </g>
    <text id="ONLINE" transform="translate(34.97 163.717)" fill="#8f958f" font-size="11" font-family="NunitoSans-Black, Nunito Sans" font-weight="800" letter-spacing="0.05em"><tspan x="0" y="0">ONLINE</tspan></text>
    <text id="Anywhere_Anytime" data-name="Anywhere, Anytime" transform="translate(153.066 210.855)" fill="#8f958f" font-size="9" font-family="NunitoSans-Bold, Nunito Sans" font-weight="700" letter-spacing="0.025em"><tspan x="0" y="0">Anywhere, Anytime</tspan></text>
    <path id="Path_157" data-name="Path 157" d="M56,221.247,42.559,192.472a3.133,3.133,0,0,0-1.335-1.479,3.829,3.829,0,0,0-1.917-.51,3.879,3.879,0,0,0-.676.066A2.424,2.424,0,0,0,37,191.3a2.741,2.741,0,0,0-.668,2.072v28.64A2.813,2.813,0,0,0,37,224.108a2.632,2.632,0,0,0,2.017.8,2.8,2.8,0,0,0,2.112-.8,2.874,2.874,0,0,0,.775-2.095V216.8H47.9l2.911,6.59a2.868,2.868,0,0,0,1.068,1.329,2.79,2.79,0,0,0,1.455.434,3.051,3.051,0,0,0,2.063-.765,2.4,2.4,0,0,0,.9-1.887A2.972,2.972,0,0,0,56,221.247Zm-14.1-9.4v-8.7l3.857,8.7Z" transform="translate(-0.519 -23.367)" fill="#8f958f"/>
  </g>
</svg>
