<svg xmlns="http://www.w3.org/2000/svg" width="151.399" height="37.961" viewBox="0 0 151.399 37.961">
  <g id="sthula-logo" transform="translate(-100 -51)">
    <g id="Group_2" data-name="Group 2" transform="translate(-112.5 -110.933)">
      <path id="Path_6" data-name="Path 6" d="M244.892,239.923l-17.6-11.194S240.972,228.306,244.892,239.923Z" transform="translate(-8.863 -40.029)" fill="#ce7852"/>
      <path id="Path_7" data-name="Path 7" d="M212.5,223.021l16.889,10.769S216.562,233.523,212.5,223.021Z" transform="translate(0 -36.609)" fill="#ce7852"/>
      <path id="Path_8" data-name="Path 8" d="M272.863,239.923l17.6-11.194S276.782,228.306,272.863,239.923Z" transform="translate(-36.175 -40.029)" fill="#ce7852"/>
      <path id="Path_9" data-name="Path 9" d="M306.32,223.021,289.43,233.79S302.257,233.523,306.32,223.021Z" transform="translate(-46.104 -36.609)" fill="#ce7852"/>
      <path id="Path_10" data-name="Path 10" d="M266.561,195.506a18.642,18.642,0,0,0-7.55,1.384.771.771,0,1,0,.336,1.505.8.8,0,0,0,.186-.069,16.433,16.433,0,0,1,6.243-1.227v9.535a30.645,30.645,0,0,0-8.908,2.168V198.484a.771.771,0,0,0-.5-.705,34,34,0,0,0-8.543-2.3c-.5-.046-.991-.081-1.489-.079a11.968,11.968,0,0,0-1.489.1.77.77,0,0,0-.653.758v11.024a.771.771,0,0,0,.705.783,17.7,17.7,0,0,1,6.74,1.385.771.771,0,1,0,.6-1.411,18.671,18.671,0,0,0-6.5-1.437v-9.587c3.037-.182,6.589.933,9.587,2.038v10.789a.772.772,0,0,0,1.045.732c4.781-1.782,7.227-2.456,10.188-2.508a.771.771,0,0,0,.757-.784V196.264A.769.769,0,0,0,266.561,195.506Z" transform="translate(-18.997 -20.057)" fill="#ce7852"/>
      <path id="Path_11" data-name="Path 11" d="M242.819,185.539l-5.02-3.2L242,186.2Z" transform="translate(-15.161 -12.231)" fill="#ce7852"/>
      <path id="Path_12" data-name="Path 12" d="M249.16,181.21l.371-.406-2.822-3.146Z" transform="translate(-20.501 -9.424)" fill="#ce7852"/>
      <path id="Path_13" data-name="Path 13" d="M254.541,174.5l-2.435-5.073,3.247,4.667Z" transform="translate(-23.736 -4.492)" fill="#ce7852"/>
      <path id="Path_14" data-name="Path 14" d="M262.795,172.1h.71l-2.029-4.617Z" transform="translate(-29.351 -3.323)" fill="#ce7852"/>
      <path id="Path_15" data-name="Path 15" d="M271.856,167.971h.812l-.237-6.037Z" transform="translate(-35.572)" fill="#ce7852"/>
      <path id="Path_16" data-name="Path 16" d="M279.2,171.893l2.181-4.363-1.485,4.617Z" transform="translate(-39.973 -3.354)" fill="#ce7852"/>
      <path id="Path_17" data-name="Path 17" d="M285.531,174.046l3.18-4.617-2.368,5.073Z" transform="translate(-43.767 -4.492)" fill="#ce7852"/>
      <path id="Path_18" data-name="Path 18" d="M291.734,180.8l2.842-3.146-2.147,3.551Z" transform="translate(-47.485 -9.424)" fill="#ce7852"/>
      <path id="Path_19" data-name="Path 19" d="M295.706,186.2l4.647-3.856-5.073,3.095Z" transform="translate(-49.61 -12.231)" fill="#ce7852"/>
    </g>
    <path id="Path_20" data-name="Path 20" d="M396.4,210.306a7.736,7.736,0,0,1-5.317-2.159,7.821,7.821,0,0,1-1.664-2.337,7.315,7.315,0,0,1-.682-2.869V186.12h3.271v4.112h4.374V193.5h-4.374v9.439a4.274,4.274,0,0,0,.42,1.607,4.553,4.553,0,0,0,.954,1.309,4.342,4.342,0,0,0,1.364.878,4.294,4.294,0,0,0,1.654.318Z" transform="translate(-218.117 -126.428)" fill="#231e1a" stroke="#231e1a" stroke-miterlimit="10" stroke-width="1"/>
    <path id="Path_21" data-name="Path 21" d="M419.047,210.072V185.729h3.271v5.652A7.524,7.524,0,0,1,426.729,190a7.341,7.341,0,0,1,2.9.579,7.766,7.766,0,0,1,4.065,3.925,7.594,7.594,0,0,1,.7,2.86v12.71h-3.27v-12.71a4.384,4.384,0,0,0-.449-1.589,4.568,4.568,0,0,0-.962-1.3,4.624,4.624,0,0,0-1.355-.879,4.109,4.109,0,0,0-1.626-.327,4.219,4.219,0,0,0-1.655.327,4.717,4.717,0,0,0-1.374.879,4.333,4.333,0,0,0-.962,1.3,4.215,4.215,0,0,0-.42,1.589v12.71Z" transform="translate(-236.282 -126.194)" fill="#231e1a" stroke="#231e1a" stroke-miterlimit="10" stroke-width="1"/>
    <path id="Path_22" data-name="Path 22" d="M484.064,209.585a7.389,7.389,0,0,1-.607,2.972,7.772,7.772,0,0,1-4.1,4.1,7.6,7.6,0,0,1-5.953,0,7.82,7.82,0,0,1-4.093-4.093,7.371,7.371,0,0,1-.607-2.981V195.729h3.083l.188,13.856a4.29,4.29,0,0,0,.346,1.72,4.547,4.547,0,0,0,.944,1.41,4.376,4.376,0,0,0,1.4.954,4.4,4.4,0,0,0,3.42,0,4.484,4.484,0,0,0,2.365-2.364,4.3,4.3,0,0,0,.346-1.72V195.729h3.271Z" transform="translate(-266.039 -132.187)" fill="#231e1a" stroke="#231e1a" stroke-miterlimit="10" stroke-width="1"/>
    <path id="Path_23" data-name="Path 23" d="M526.393,220.381a7.792,7.792,0,0,1-2.926-.589,7.672,7.672,0,0,1-2.411-1.57,7.81,7.81,0,0,1-1.663-2.336,7.314,7.314,0,0,1-.682-2.869V195.729h3.271v17.288a4.253,4.253,0,0,0,.421,1.607,4.545,4.545,0,0,0,.953,1.309,4.333,4.333,0,0,0,1.374.879,4.387,4.387,0,0,0,1.664.317Z" transform="translate(-296.01 -132.187)" fill="#231e1a" stroke="#231e1a" stroke-miterlimit="10" stroke-width="1"/>
    <path id="Path_24" data-name="Path 24" d="M548.977,216.456a10.037,10.037,0,0,1,0-20.074A9.8,9.8,0,0,1,555.762,199v-2.617h3.271v20.074h-3.271v-2.617A9.8,9.8,0,0,1,548.977,216.456Zm0-3.252a6.528,6.528,0,0,0,2.617-.533,6.864,6.864,0,0,0,2.159-1.458,7.01,7.01,0,0,0,1.467-2.159,6.631,6.631,0,0,0,0-5.252,7.011,7.011,0,0,0-1.467-2.158,6.886,6.886,0,0,0-2.159-1.459,6.724,6.724,0,0,0-5.243,0,6.876,6.876,0,0,0-3.607,3.617,6.735,6.735,0,0,0,0,5.252,6.869,6.869,0,0,0,3.607,3.617A6.506,6.506,0,0,0,548.977,213.2Z" transform="translate(-308.133 -132.578)" fill="#231e1a" stroke="#231e1a" stroke-miterlimit="10" stroke-width="1"/>
    <g id="Group_3" data-name="Group 3" transform="translate(150.444 63.511)">
      <path id="Path_20-2" data-name="Path 20" d="M344.89,204.319H352.4a4.527,4.527,0,0,1,3.236,1.031,4.058,4.058,0,0,1,1.078,3.072,7.619,7.619,0,0,1-.626,3.063,8.01,8.01,0,0,1-4.228,4.228,7.624,7.624,0,0,1-3.063.626,7.841,7.841,0,0,1-5.3-2.023,8.068,8.068,0,0,1-1.714-2.215,7.708,7.708,0,0,1-.848-2.736h3.409a4.28,4.28,0,0,0,.559,1.445,4.727,4.727,0,0,0,.992,1.146,4.394,4.394,0,0,0,1.329.76,4.534,4.534,0,0,0,1.57.27,4.334,4.334,0,0,0,1.772-.366,4.617,4.617,0,0,0,2.417-2.456,4.5,4.5,0,0,0,.356-1.782q0-.694-.924-.694h-7.59a3.9,3.9,0,0,1-2.966-1.04,4.33,4.33,0,0,1-.983-3.082,7.624,7.624,0,0,1,.626-3.063,8.012,8.012,0,0,1,4.229-4.229,7.806,7.806,0,0,1,5.914-.087,7.994,7.994,0,0,1,2.4,1.483,8.306,8.306,0,0,1,1.744,2.216,7.509,7.509,0,0,1,.867,2.736h-3.41a4.283,4.283,0,0,0-.569-1.416,4.559,4.559,0,0,0-1.011-1.146,4.894,4.894,0,0,0-1.33-.761,4.309,4.309,0,0,0-1.541-.279,4.425,4.425,0,0,0-1.773.356,4.522,4.522,0,0,0-1.445.982,4.715,4.715,0,0,0-.973,1.454,4.4,4.4,0,0,0-.356,1.753.8.8,0,0,0,.174.567A.6.6,0,0,0,344.89,204.319Z" transform="translate(-340.883 -195.65)" fill="#231e1a" stroke="#231e1a" stroke-miterlimit="10" stroke-width="0.5"/>
    </g>
  </g>
</svg>
