<svg xmlns="http://www.w3.org/2000/svg" width="176.726" height="44.332" viewBox="0 0 176.726 44.332">
  <g id="sthula-logo-white" transform="translate(-98 -4836)">
    <g id="Group_33" data-name="Group 33" transform="translate(98 4836)">
      <path id="Path_6" data-name="Path 6" d="M247.846,241.8l-20.557-13.072S243.269,228.236,247.846,241.8Z" transform="translate(-220.368 -197.47)" fill="#f9f9f9"/>
      <path id="Path_7" data-name="Path 7" d="M212.5,223.021,232.224,235.6S217.244,235.286,212.5,223.021Z" transform="translate(-212.5 -194.434)" fill="#f9f9f9"/>
      <path id="Path_8" data-name="Path 8" d="M272.863,241.8l20.557-13.072S277.44,228.236,272.863,241.8Z" transform="translate(-244.615 -197.47)" fill="#f9f9f9"/>
      <path id="Path_9" data-name="Path 9" d="M309.155,223.021,289.43,235.6S304.41,235.286,309.155,223.021Z" transform="translate(-253.43 -194.434)" fill="#f9f9f9"/>
      <path id="Path_10" data-name="Path 10" d="M270.314,195.524a21.771,21.771,0,0,0-8.817,1.616.9.9,0,1,0,.393,1.758.935.935,0,0,0,.218-.08,19.19,19.19,0,0,1,7.291-1.433V208.52a35.789,35.789,0,0,0-10.4,2.532V199a.9.9,0,0,0-.579-.824,39.7,39.7,0,0,0-9.977-2.685c-.584-.053-1.158-.094-1.739-.092a13.977,13.977,0,0,0-1.738.122.9.9,0,0,0-.763.885v12.874a.9.9,0,0,0,.824.915c3.433.277,4.865.355,7.871,1.617a.9.9,0,1,0,.7-1.648,21.8,21.8,0,0,0-7.6-1.678v-11.2c3.547-.212,7.7,1.09,11.2,2.38v12.6a.9.9,0,0,0,1.22.854c5.584-2.081,8.44-2.868,11.9-2.928a.9.9,0,0,0,.884-.915V196.408A.9.9,0,0,0,270.314,195.524Z" transform="translate(-229.365 -179.739)" fill="#f9f9f9"/>
      <path id="Path_11" data-name="Path 11" d="M243.661,186.075l-5.863-3.732,4.9,4.5Z" transform="translate(-225.96 -172.792)" fill="#f9f9f9"/>
      <path id="Path_12" data-name="Path 12" d="M249.571,181.806l.433-.474-3.3-3.674Z" transform="translate(-230.7 -170.299)" fill="#f9f9f9"/>
      <path id="Path_13" data-name="Path 13" d="M254.95,175.354l-2.844-5.925,3.792,5.451Z" transform="translate(-233.572 -165.921)" fill="#f9f9f9"/>
      <path id="Path_14" data-name="Path 14" d="M263.016,172.87h.829l-2.37-5.392Z" transform="translate(-238.557 -164.883)" fill="#f9f9f9"/>
      <path id="Path_15" data-name="Path 15" d="M271.856,168.984h.949l-.277-7.051Z" transform="translate(-244.08 -161.933)" fill="#f9f9f9"/>
      <path id="Path_16" data-name="Path 16" d="M279.2,172.625l2.547-5.1-1.735,5.392Z" transform="translate(-247.987 -164.911)" fill="#f9f9f9"/>
      <path id="Path_17" data-name="Path 17" d="M285.531,174.821l3.714-5.392-2.766,5.925Z" transform="translate(-251.355 -165.921)" fill="#f9f9f9"/>
      <path id="Path_18" data-name="Path 18" d="M291.734,181.332l3.318-3.674-2.508,4.147Z" transform="translate(-254.656 -170.299)" fill="#f9f9f9"/>
      <path id="Path_19" data-name="Path 19" d="M295.778,186.846l5.427-4.5-5.925,3.614Z" transform="translate(-256.542 -172.792)" fill="#f9f9f9"/>
    </g>
    <path id="Path_47" data-name="Path 47" d="M397.685,214.365a9.035,9.035,0,0,1-6.209-2.521,9.133,9.133,0,0,1-1.943-2.729,8.542,8.542,0,0,1-.8-3.351V186.12h3.82v4.8h5.108v3.82h-5.108v11.023a4.991,4.991,0,0,0,.491,1.877,5.317,5.317,0,0,0,1.114,1.528,5.071,5.071,0,0,0,1.593,1.025,5.014,5.014,0,0,0,1.931.372Z" transform="translate(-208.264 4660.031)" fill="#f9f9f9" stroke="#f9f9f9" stroke-miterlimit="10" stroke-width="1"/>
    <path id="Path_48" data-name="Path 48" d="M419.047,214.157V185.729h3.82v6.6a8.787,8.787,0,0,1,5.151-1.615,8.574,8.574,0,0,1,3.383.677,9.069,9.069,0,0,1,4.747,4.584,8.87,8.87,0,0,1,.818,3.34v14.843h-3.819V199.314a5.119,5.119,0,0,0-.524-1.855,5.334,5.334,0,0,0-1.124-1.517,5.4,5.4,0,0,0-1.583-1.026,4.8,4.8,0,0,0-1.9-.381,4.927,4.927,0,0,0-1.932.381,5.508,5.508,0,0,0-1.6,1.026,5.06,5.06,0,0,0-1.124,1.517,4.922,4.922,0,0,0-.491,1.855v14.843Z" transform="translate(-224.391 4660.239)" fill="#f9f9f9" stroke="#f9f9f9" stroke-miterlimit="10" stroke-width="1"/>
    <path id="Path_49" data-name="Path 49" d="M486.642,211.91a8.629,8.629,0,0,1-.709,3.47,9.076,9.076,0,0,1-4.791,4.791,8.87,8.87,0,0,1-6.952,0,9.133,9.133,0,0,1-4.78-4.78,8.608,8.608,0,0,1-.709-3.482V195.729h3.6l.219,16.181a5.01,5.01,0,0,0,.4,2.009,5.309,5.309,0,0,0,1.1,1.647,5.11,5.11,0,0,0,1.637,1.114,5.14,5.14,0,0,0,3.995,0,5.236,5.236,0,0,0,2.761-2.76,5.025,5.025,0,0,0,.4-2.009V195.729h3.819Z" transform="translate(-250.808 4654.918)" fill="#f9f9f9" stroke="#f9f9f9" stroke-miterlimit="10" stroke-width="1"/>
    <path id="Path_50" data-name="Path 50" d="M527.682,224.518a9.1,9.1,0,0,1-3.417-.687A8.96,8.96,0,0,1,521.45,222a9.119,9.119,0,0,1-1.943-2.728,8.539,8.539,0,0,1-.8-3.351V195.729h3.819v20.189a4.967,4.967,0,0,0,.491,1.877,5.308,5.308,0,0,0,1.113,1.528,5.059,5.059,0,0,0,1.6,1.026,5.124,5.124,0,0,0,1.943.371Z" transform="translate(-277.416 4654.918)" fill="#f9f9f9" stroke="#f9f9f9" stroke-miterlimit="10" stroke-width="1"/>
    <path id="Path_51" data-name="Path 51" d="M550.662,219.825a11.721,11.721,0,0,1,0-23.443,11.447,11.447,0,0,1,7.924,3.056v-3.056h3.82v23.443h-3.82v-3.056A11.44,11.44,0,0,1,550.662,219.825Zm0-3.8a7.623,7.623,0,0,0,3.056-.622,8.016,8.016,0,0,0,2.521-1.7,8.188,8.188,0,0,0,1.713-2.521,7.745,7.745,0,0,0,0-6.134,8.189,8.189,0,0,0-1.713-2.52,8.042,8.042,0,0,0-2.521-1.7,7.852,7.852,0,0,0-6.123,0,8.03,8.03,0,0,0-4.213,4.224,7.865,7.865,0,0,0,0,6.134,8.021,8.021,0,0,0,4.213,4.224A7.6,7.6,0,0,0,550.662,216.027Z" transform="translate(-288.178 4654.571)" fill="#f9f9f9" stroke="#f9f9f9" stroke-miterlimit="10" stroke-width="1"/>
    <g id="Group_34" data-name="Group 34" transform="translate(156.911 4850.61)">
      <path id="Path_20" data-name="Path 20" d="M345.562,205.773h8.774a5.287,5.287,0,0,1,3.779,1.2,4.739,4.739,0,0,1,1.259,3.588,8.9,8.9,0,0,1-.731,3.578,9.355,9.355,0,0,1-4.938,4.938,8.9,8.9,0,0,1-3.577.731,9.157,9.157,0,0,1-6.187-2.362,9.422,9.422,0,0,1-2-2.587,9,9,0,0,1-.99-3.195h3.981a5,5,0,0,0,.652,1.687,5.519,5.519,0,0,0,1.159,1.339,5.131,5.131,0,0,0,1.553.888,5.3,5.3,0,0,0,1.833.315,5.062,5.062,0,0,0,2.069-.427,5.392,5.392,0,0,0,2.823-2.869,5.25,5.25,0,0,0,.416-2.081q0-.811-1.079-.811h-8.864a4.549,4.549,0,0,1-3.464-1.214,5.056,5.056,0,0,1-1.147-3.6,8.9,8.9,0,0,1,.731-3.577,9.357,9.357,0,0,1,4.938-4.938,9.116,9.116,0,0,1,6.906-.1,9.336,9.336,0,0,1,2.8,1.732A9.7,9.7,0,0,1,358.3,200.6a8.769,8.769,0,0,1,1.013,3.195h-3.982a5,5,0,0,0-.664-1.654,5.324,5.324,0,0,0-1.181-1.338,5.715,5.715,0,0,0-1.553-.889,5.032,5.032,0,0,0-1.8-.325,5.168,5.168,0,0,0-2.07.416,5.282,5.282,0,0,0-1.687,1.147,5.505,5.505,0,0,0-1.136,1.7,5.135,5.135,0,0,0-.416,2.048.932.932,0,0,0,.2.663A.7.7,0,0,0,345.562,205.773Z" transform="translate(-340.883 -195.65)" fill="#f9f9f9" stroke="#f9f9f9" stroke-miterlimit="10" stroke-width="0.5"/>
    </g>
  </g>
</svg>
